<svg width="25" height="25" xmlns="http://www.w3.org/2000/svg">

 <g>
  <title>Layer 1</title>
  <g id="svg_3">
   <path stroke="null" fill="#ffffff" d="m16.95336,13.63402l-15.30757,0a0.79174,0.77538 0 1 1 0,-1.55077l15.30757,0a0.79174,0.77538 0 1 1 0,1.55077zm0,0" data-name="Path 37" id="Path_37"/>
   <path stroke="null" fill="#ffffff" d="m13.24393,17.77008a0.79174,0.77538 0 0 1 -0.56008,-1.32491l3.66319,-3.58754l-3.66319,-3.58754a0.79174,0.77538 0 1 1 1.12017,-1.09703l4.22122,4.13404a0.79174,0.77538 0 0 1 0,1.09703l-4.22122,4.13404a0.78556,0.76933 0 0 1 -0.56008,0.23191zm0,0" data-name="Path 38" id="Path_38"/>
   <path stroke="null" stroke-width="8" fill="#ffffff" d="m13.3978,24.48768a11.42099,11.56923 0 0 1 -10.68714,-7.37499a0.78271,0.79287 0 1 1 1.4565,-0.57944a9.91461,10.0433 0 1 0 0,-7.35024a0.78271,0.79287 0 1 1 -1.4565,-0.57944a11.48003,11.62903 0 1 1 10.68714,15.88308l0,0.00103zm0,0" data-name="Path 39" id="Path_39"/>
  </g>
 </g>
</svg>