<svg xmlns="http://www.w3.org/2000/svg" width="157.06" height="35.949" viewBox="0 0 157.06 35.949">
  <g id="luckcloud_wortbildmarke_rgb" transform="translate(0.006 0.001)">
    <path id="Path_442" data-name="Path 442" d="M6.992.354A9.708,9.708,0,0,0,.3,7.384c-.909,3.648.258,7.461,3.183,10.585C.546,21.093-.612,24.915.3,28.563a9.708,9.708,0,0,0,6.7,7.03c2.114.6,6.265.93,10.9-3.238,4.625,4.172,8.784,3.838,10.9,3.238a9.708,9.708,0,0,0,6.7-7.03C36.4,24.915,35.23,21.1,32.3,17.978c2.934-3.124,4.092-6.945,3.183-10.593a9.908,9.908,0,0,0-2.6-4.616A9.411,9.411,0,0,0,28.8.354c-2.114-.6-6.265-.93-10.9,3.238C13.27-.58,9.11-.246,6.992.354Zm1.932,18.9a8.284,8.284,0,0,1-1.805-.833c-.228-.139-.444-.287-.659-.444.216-.156.435-.309.659-.444a8.427,8.427,0,0,1,1.818-.837,1.344,1.344,0,0,1,.731-.034,1.367,1.367,0,0,1,.951.807,1.387,1.387,0,0,1,.1.507A1.347,1.347,0,0,1,8.924,19.25ZM26.856,16.7a8.487,8.487,0,0,1,1.805.833c.228.139.444.287.659.444-.216.156-.435.309-.659.444a8.427,8.427,0,0,1-1.818.837,1.344,1.344,0,0,1-.731.034,1.351,1.351,0,0,1-.655-2.27,1.344,1.344,0,0,1,1.4-.321ZM28.247,2.278a7.7,7.7,0,0,1,5.3,5.593c.74,2.972-.245,6.121-2.71,8.746a11.34,11.34,0,0,0-1.137-.79,10.19,10.19,0,0,0-2.228-1.031,3.35,3.35,0,0,0-4.164,1.915,3.294,3.294,0,0,0-.245,1.26,3.349,3.349,0,0,0,2.608,3.268,3.332,3.332,0,0,0,1.788-.085,10.219,10.219,0,0,0,2.24-1.031,11.341,11.341,0,0,0,1.137-.79c2.464,2.629,3.449,5.774,2.71,8.746a7.7,7.7,0,0,1-5.3,5.593c-2.908.824-6.079-.165-8.983-2.769a11.489,11.489,0,0,0,.778-1.12,10.368,10.368,0,0,0,1.027-2.228,3.35,3.35,0,0,0-1.915-4.164,3.294,3.294,0,0,0-1.26-.245,3.375,3.375,0,0,0-1.26.245,3.349,3.349,0,0,0-1.919,4.147,10.339,10.339,0,0,0,1.031,2.245,12.025,12.025,0,0,0,.778,1.12c-2.913,2.608-6.079,3.589-8.983,2.769a7.688,7.688,0,0,1-5.305-5.588c-.74-2.972.245-6.121,2.71-8.746a11.341,11.341,0,0,0,1.137.79,10.368,10.368,0,0,0,2.228,1.027,3.35,3.35,0,0,0,4.164-1.915,3.294,3.294,0,0,0,.245-1.26,3.349,3.349,0,0,0-2.608-3.268,3.332,3.332,0,0,0-1.788.085,10.219,10.219,0,0,0-2.24,1.031,11.341,11.341,0,0,0-1.137.79c-2.464-2.638-3.449-5.779-2.71-8.75a7.7,7.7,0,0,1,5.3-5.593c2.908-.824,6.079.165,8.983,2.769a11.489,11.489,0,0,0-.778,1.12A10.368,10.368,0,0,0,14.715,8.39a3.344,3.344,0,0,0-.089,1.8,3.353,3.353,0,0,0,4.527,2.363,3.347,3.347,0,0,0,2-2.363A3.332,3.332,0,0,0,21.073,8.4a10.219,10.219,0,0,0-1.031-2.24,12.024,12.024,0,0,0-.778-1.12C22.176,2.439,25.343,1.454,28.247,2.278ZM17.89,29.4c-.156-.216-.309-.435-.444-.659a8.365,8.365,0,0,1-.837-1.822,1.29,1.29,0,0,1-.034-.727,1.348,1.348,0,0,1,.364-.655,1.315,1.315,0,0,1,.448-.3,1.387,1.387,0,0,1,.507-.1,1.347,1.347,0,0,1,1.272,1.792,8.284,8.284,0,0,1-.833,1.805C18.2,28.973,18.046,29.188,17.89,29.4Zm0-22.861c.156.216.309.435.444.659a8.427,8.427,0,0,1,.837,1.818,1.357,1.357,0,0,1-.33,1.387,1.315,1.315,0,0,1-.448.3,1.387,1.387,0,0,1-.507.1A1.349,1.349,0,0,1,16.613,9,8.284,8.284,0,0,1,17.446,7.2C17.586,6.974,17.738,6.759,17.89,6.543Z" transform="translate(0 0)" fill="#42d75f"/>
    <g id="Group_272" data-name="Group 272" transform="translate(48.406 9.781)">
      <path id="Path_443" data-name="Path 443" d="M116.519,38.476a1,1,0,1,1-2,0v-14.3a1,1,0,1,1,2,0Z" transform="translate(-114.52 -23.14)" fill="#42d75f"/>
      <path id="Path_444" data-name="Path 444" d="M133.727,45.59a3.593,3.593,0,0,1-3.2,1.792c-2.545,0-3.952-1.7-3.952-4.633V37.621a1,1,0,1,1,2,0v4.992c0,1.746.858,2.777,2.262,2.777a2.751,2.751,0,0,0,2.9-3.044V37.621a1,1,0,1,1,2,0v8.619a1,1,0,1,1-2,0V45.59Z" transform="translate(-121.476 -30.904)" fill="#42d75f"/>
      <path id="Path_445" data-name="Path 445" d="M159.668,45.262a3.3,3.3,0,0,0,1.953-.626,1.007,1.007,0,1,1,1.294,1.543,5.388,5.388,0,0,1-3.251,1.053,5.451,5.451,0,0,1,0-10.9,5.579,5.579,0,0,1,3.251,1.053,1.02,1.02,0,0,1,.11,1.454,1.066,1.066,0,0,1-1.4.089,3.3,3.3,0,0,0-1.953-.626,3.481,3.481,0,0,0,0,6.962Z" transform="translate(-137.45 -30.754)" fill="#42d75f"/>
      <path id="Path_446" data-name="Path 446" d="M185.241,33.484l4.1,4.341a1,1,0,0,1-.042,1.387.982.982,0,0,1-1.4,0l-4.481-4.925v4.185a1,1,0,1,1-2,0v-14.3a1,1,0,1,1,2,0v8.416l3.361-3.471a.974.974,0,0,1,1.361-.021,1.038,1.038,0,0,1,0,1.433Z" transform="translate(-153.14 -23.14)" fill="#42d75f"/>
      <path id="Path_447" data-name="Path 447" d="M207.592,44.272l2.853-7.051a.988.988,0,1,1,1.822.765l-5.622,13.7a.987.987,0,0,1-1.294.558,1.029,1.029,0,0,1-.482-1.319l1.623-4.075-3.6-8.886a1.032,1.032,0,0,1,.592-1.319,1.01,1.01,0,0,1,1.272.651Z" transform="translate(-165.502 -30.905)" fill="#42d75f"/>
      <path id="Path_448" data-name="Path 448" d="M234,45.262a3.3,3.3,0,0,0,1.953-.626,1.007,1.007,0,1,1,1.294,1.543,5.388,5.388,0,0,1-3.251,1.053,5.451,5.451,0,0,1,0-10.9,5.579,5.579,0,0,1,3.251,1.053,1.02,1.02,0,0,1,.11,1.454,1.066,1.066,0,0,1-1.4.089A3.3,3.3,0,0,0,234,38.3a3.481,3.481,0,0,0,0,6.962Z" transform="translate(-180.359 -30.754)" fill="#42d75f"/>
      <path id="Path_449" data-name="Path 449" d="M257.739,38.476a1,1,0,1,1-2,0v-14.3a1,1,0,1,1,2,0Z" transform="translate(-196.043 -23.14)" fill="#42d75f"/>
      <path id="Path_450" data-name="Path 450" d="M266.6,41.739a5.367,5.367,0,1,1,10.733,0,5.368,5.368,0,1,1-10.733,0Zm8.742,0a3.382,3.382,0,1,0-6.764,0,3.384,3.384,0,1,0,6.764,0Z" transform="translate(-202.313 -30.749)" fill="#42d75f"/>
      <path id="Path_451" data-name="Path 451" d="M305.027,45.59a3.593,3.593,0,0,1-3.2,1.792c-2.545,0-3.952-1.7-3.952-4.633V37.621a1,1,0,1,1,2,0v4.992c0,1.746.858,2.777,2.262,2.777a2.751,2.751,0,0,0,2.9-3.044V37.621a1,1,0,1,1,2,0v8.619a1,1,0,1,1-2,0V45.59Z" transform="translate(-220.364 -30.904)" fill="#42d75f"/>
      <path id="Path_452" data-name="Path 452" d="M334.384,24.171a1,1,0,1,1,2,0v14.3a1,1,0,1,1-2,0v-.693a4.119,4.119,0,0,1-3.58,1.835,5.194,5.194,0,0,1-5.2-5.462,5.135,5.135,0,0,1,5.183-5.44,4.048,4.048,0,0,1,3.6,1.792Zm-3.424,6.535a3.249,3.249,0,0,0-3.314,3.424,3.359,3.359,0,1,0,3.314-3.424Z" transform="translate(-236.372 -23.14)" fill="#42d75f"/>
    </g>
    <g id="Group_273" data-name="Group 273" transform="translate(151.512 20.654)">
      <path id="Path_453" data-name="Path 453" d="M361.2,48.86a2.8,2.8,0,1,1-2.769,2.807A2.782,2.782,0,0,1,361.2,48.86Zm0,5.111a2.312,2.312,0,1,0-2.283-2.308A2.284,2.284,0,0,0,361.2,53.971Zm-.744-3.695a.215.215,0,0,0-.207.216v2.346a.275.275,0,1,0,.55,0v-.79h.182l.634.943a.269.269,0,0,0,.38.08.263.263,0,0,0,.063-.389l-.427-.609a.84.84,0,0,0,.609-.871.872.872,0,0,0-.9-.922h-.879Zm.879.541a.376.376,0,0,1,.364.4.384.384,0,0,1-.38.4h-.524v-.795Z" transform="translate(-358.43 -48.86)" fill="#42d75f"/>
    </g>
  </g>
</svg>
